<?xml version="1.0" encoding="utf-8" standalone="no"?>
<!DOCTYPE svg PUBLIC "-//W3C//DTD SVG 1.1//EN"
  "http://www.w3.org/Graphics/SVG/1.1/DTD/svg11.dtd">
<svg xmlns:xlink="http://www.w3.org/1999/xlink" width="720pt" height="432pt" viewBox="0 0 720 432" xmlns="http://www.w3.org/2000/svg" version="1.1">
 <metadata>
  <rdf:RDF xmlns:dc="http://purl.org/dc/elements/1.1/" xmlns:cc="http://creativecommons.org/ns#" xmlns:rdf="http://www.w3.org/1999/02/22-rdf-syntax-ns#">
   <cc:Work>
    <dc:type rdf:resource="http://purl.org/dc/dcmitype/StillImage"/>
    <dc:date>2023-06-04T15:11:11.748957</dc:date>
    <dc:format>image/svg+xml</dc:format>
    <dc:creator>
     <cc:Agent>
      <dc:title>Matplotlib v3.7.1, https://matplotlib.org/</dc:title>
     </cc:Agent>
    </dc:creator>
   </cc:Work>
  </rdf:RDF>
 </metadata>
 <defs>
  <style type="text/css">*{stroke-linejoin: round; stroke-linecap: butt}</style>
 </defs>
 <g id="figure_1">
  <g id="patch_1">
   <path d="M 0 432 
L 720 432 
L 720 0 
L 0 0 
z
" style="fill: #ffffff"/>
  </g>
  <g id="axes_1">
   <g id="patch_2">
    <path d="M 62.47575 378.74925 
L 701.901954 378.74925 
L 701.901954 15.552 
L 62.47575 15.552 
z
" style="fill: #eaeaf2"/>
   </g>
   <g id="matplotlib.axis_1">
    <g id="xtick_1">
     <g id="line2d_1">
      <path d="M 91.540577 378.74925 
L 91.540577 15.552 
" clip-path="url(#p491fbdd15b)" style="fill: none; stroke: #ffffff; stroke-linecap: round"/>
     </g>
     <g id="text_1">
      <!-- 0 -->
      <g style="fill: #262626" transform="translate(88.240577 397.32425) scale(0.132 -0.132)">
       <defs>
        <path id="SimHei-30" d="M 225 2537 
Q 250 3200 412 3587 
Q 575 3975 875 4225 
Q 1175 4475 1612 4475 
Q 2050 4475 2375 4112 
Q 2700 3750 2800 3200 
Q 2900 2650 2862 1937 
Q 2825 1225 2612 775 
Q 2400 325 1975 150 
Q 1550 -25 1125 187 
Q 700 400 525 750 
Q 350 1100 275 1487 
Q 200 1875 225 2537 
z
M 750 2687 
Q 675 2000 800 1462 
Q 925 925 1212 700 
Q 1500 475 1800 612 
Q 2100 750 2237 1162 
Q 2375 1575 2375 2062 
Q 2375 2550 2337 2950 
Q 2300 3350 2112 3675 
Q 1925 4000 1612 4012 
Q 1300 4025 1062 3700 
Q 825 3375 750 2687 
z
" transform="scale(0.015625)"/>
       </defs>
       <use xlink:href="#SimHei-30"/>
      </g>
     </g>
    </g>
    <g id="xtick_2">
     <g id="line2d_2">
      <path d="M 177.531191 378.74925 
L 177.531191 15.552 
" clip-path="url(#p491fbdd15b)" style="fill: none; stroke: #ffffff; stroke-linecap: round"/>
     </g>
     <g id="text_2">
      <!-- 25 -->
      <g style="fill: #262626" transform="translate(170.931191 397.32425) scale(0.132 -0.132)">
       <defs>
        <path id="SimHei-32" d="M 300 250 
Q 325 625 650 925 
Q 975 1225 1475 1862 
Q 1975 2500 2125 2850 
Q 2275 3200 2237 3450 
Q 2200 3700 2000 3862 
Q 1800 4025 1537 4000 
Q 1275 3975 1037 3800 
Q 800 3625 675 3275 
L 200 3350 
Q 400 3925 712 4187 
Q 1025 4450 1450 4475 
Q 1700 4500 1900 4462 
Q 2100 4425 2312 4287 
Q 2525 4150 2662 3875 
Q 2800 3600 2762 3212 
Q 2725 2825 2375 2287 
Q 2025 1750 1025 600 
L 2825 600 
L 2825 150 
L 300 150 
L 300 250 
z
" transform="scale(0.015625)"/>
        <path id="SimHei-35" d="M 550 1325 
Q 725 650 1150 575 
Q 1575 500 1837 662 
Q 2100 825 2212 1087 
Q 2325 1350 2312 1675 
Q 2300 2000 2137 2225 
Q 1975 2450 1725 2525 
Q 1475 2600 1162 2525 
Q 850 2450 650 2175 
L 225 2225 
Q 275 2375 700 4375 
L 2675 4375 
L 2675 3925 
L 1075 3925 
Q 950 3250 825 2850 
Q 1200 3025 1525 3012 
Q 1850 3000 2150 2862 
Q 2450 2725 2587 2487 
Q 2725 2250 2787 2012 
Q 2850 1775 2837 1500 
Q 2825 1225 2725 937 
Q 2625 650 2425 462 
Q 2225 275 1937 162 
Q 1650 50 1275 75 
Q 900 100 562 350 
Q 225 600 100 1200 
L 550 1325 
z
" transform="scale(0.015625)"/>
       </defs>
       <use xlink:href="#SimHei-32"/>
       <use xlink:href="#SimHei-35" x="50"/>
      </g>
     </g>
    </g>
    <g id="xtick_3">
     <g id="line2d_3">
      <path d="M 263.521805 378.74925 
L 263.521805 15.552 
" clip-path="url(#p491fbdd15b)" style="fill: none; stroke: #ffffff; stroke-linecap: round"/>
     </g>
     <g id="text_3">
      <!-- 50 -->
      <g style="fill: #262626" transform="translate(256.921805 397.32425) scale(0.132 -0.132)">
       <use xlink:href="#SimHei-35"/>
       <use xlink:href="#SimHei-30" x="50"/>
      </g>
     </g>
    </g>
    <g id="xtick_4">
     <g id="line2d_4">
      <path d="M 349.512419 378.74925 
L 349.512419 15.552 
" clip-path="url(#p491fbdd15b)" style="fill: none; stroke: #ffffff; stroke-linecap: round"/>
     </g>
     <g id="text_4">
      <!-- 75 -->
      <g style="fill: #262626" transform="translate(342.912419 397.32425) scale(0.132 -0.132)">
       <defs>
        <path id="SimHei-37" d="M 850 150 
Q 1300 2050 2425 3925 
L 275 3925 
L 275 4375 
L 2950 4375 
L 2950 3950 
Q 1775 2050 1400 150 
L 850 150 
z
" transform="scale(0.015625)"/>
       </defs>
       <use xlink:href="#SimHei-37"/>
       <use xlink:href="#SimHei-35" x="50"/>
      </g>
     </g>
    </g>
    <g id="xtick_5">
     <g id="line2d_5">
      <path d="M 435.503032 378.74925 
L 435.503032 15.552 
" clip-path="url(#p491fbdd15b)" style="fill: none; stroke: #ffffff; stroke-linecap: round"/>
     </g>
     <g id="text_5">
      <!-- 100 -->
      <g style="fill: #262626" transform="translate(425.603032 397.32425) scale(0.132 -0.132)">
       <defs>
        <path id="SimHei-31" d="M 1400 3600 
Q 1075 3275 575 2975 
L 575 3450 
Q 1200 3875 1600 4450 
L 1900 4450 
L 1900 150 
L 1400 150 
L 1400 3600 
z
" transform="scale(0.015625)"/>
       </defs>
       <use xlink:href="#SimHei-31"/>
       <use xlink:href="#SimHei-30" x="50"/>
       <use xlink:href="#SimHei-30" x="100"/>
      </g>
     </g>
    </g>
    <g id="xtick_6">
     <g id="line2d_6">
      <path d="M 521.493646 378.74925 
L 521.493646 15.552 
" clip-path="url(#p491fbdd15b)" style="fill: none; stroke: #ffffff; stroke-linecap: round"/>
     </g>
     <g id="text_6">
      <!-- 125 -->
      <g style="fill: #262626" transform="translate(511.593646 397.32425) scale(0.132 -0.132)">
       <use xlink:href="#SimHei-31"/>
       <use xlink:href="#SimHei-32" x="50"/>
       <use xlink:href="#SimHei-35" x="100"/>
      </g>
     </g>
    </g>
    <g id="xtick_7">
     <g id="line2d_7">
      <path d="M 607.48426 378.74925 
L 607.48426 15.552 
" clip-path="url(#p491fbdd15b)" style="fill: none; stroke: #ffffff; stroke-linecap: round"/>
     </g>
     <g id="text_7">
      <!-- 150 -->
      <g style="fill: #262626" transform="translate(597.58426 397.32425) scale(0.132 -0.132)">
       <use xlink:href="#SimHei-31"/>
       <use xlink:href="#SimHei-35" x="50"/>
       <use xlink:href="#SimHei-30" x="100"/>
      </g>
     </g>
    </g>
    <g id="xtick_8">
     <g id="line2d_8">
      <path d="M 693.474874 378.74925 
L 693.474874 15.552 
" clip-path="url(#p491fbdd15b)" style="fill: none; stroke: #ffffff; stroke-linecap: round"/>
     </g>
     <g id="text_8">
      <!-- 175 -->
      <g style="fill: #262626" transform="translate(683.574874 397.32425) scale(0.132 -0.132)">
       <use xlink:href="#SimHei-31"/>
       <use xlink:href="#SimHei-37" x="50"/>
       <use xlink:href="#SimHei-35" x="100"/>
      </g>
     </g>
    </g>
    <g id="text_9">
     <!-- 样本 -->
     <g style="fill: #262626" transform="translate(367.788852 414.2805) scale(0.144 -0.144)">
      <defs>
       <path id="SimHei-6837" d="M 4350 4025 
Q 4600 4575 4850 5225 
Q 5250 5075 5375 5000 
Q 5150 4725 4850 4025 
L 4950 4025 
Q 5650 4050 5950 4050 
L 5950 3600 
Q 5675 3625 5175 3625 
L 4550 3625 
L 4550 2650 
L 4950 2650 
Q 5525 2675 5800 2675 
L 5800 2225 
Q 5475 2250 5025 2250 
L 4550 2250 
L 4550 1225 
L 5325 1225 
Q 5800 1250 6100 1250 
L 6100 800 
Q 5825 825 5325 825 
L 4550 825 
L 4550 275 
Q 4550 -250 4575 -600 
L 4075 -600 
L 4075 825 
L 3475 825 
Q 3000 825 2550 800 
L 2550 1275 
Q 3000 1250 3500 1225 
L 4075 1225 
L 4075 2250 
L 3650 2250 
Q 3225 2250 2900 2225 
L 2900 2700 
Q 3200 2675 3675 2650 
L 4075 2650 
L 4075 3625 
L 3475 3625 
Q 3050 3625 2750 3600 
L 2750 4075 
Q 3050 4050 3475 4025 
L 4350 4025 
z
M 1325 4350 
Q 1325 4775 1300 5125 
L 1825 5125 
Q 1800 4725 1800 4350 
L 1800 3750 
Q 2125 3750 2475 3775 
L 2475 3325 
Q 2125 3350 1800 3350 
L 1800 2425 
Q 2000 2600 2100 2675 
Q 2375 2325 2725 1775 
Q 2575 1700 2300 1475 
Q 2025 1975 1800 2350 
L 1800 475 
Q 1800 -50 1825 -575 
L 1300 -575 
Q 1325 -25 1325 475 
L 1325 2250 
Q 925 1300 525 725 
Q 425 950 225 1175 
Q 950 2150 1225 3350 
Q 825 3350 350 3325 
L 350 3775 
Q 825 3750 1325 3750 
L 1325 4350 
z
M 3575 5200 
Q 3800 4775 3950 4350 
Q 3650 4250 3525 4175 
Q 3350 4600 3150 5000 
Q 3425 5125 3575 5200 
z
" transform="scale(0.015625)"/>
       <path id="SimHei-672c" d="M 2950 3925 
L 2950 4425 
Q 2950 4825 2925 5175 
L 3475 5175 
Q 3450 4900 3450 4450 
L 3450 3925 
L 4850 3925 
Q 5275 3925 5850 3950 
L 5850 3475 
Q 5300 3500 4875 3500 
L 3850 3500 
Q 4200 2350 4862 1687 
Q 5525 1025 6075 800 
Q 5850 625 5650 325 
Q 4800 900 4262 1637 
Q 3725 2375 3450 3350 
L 3450 1000 
L 3775 1000 
Q 4175 1000 4600 1025 
L 4600 550 
Q 4175 575 3750 575 
L 3450 575 
Q 3450 0 3475 -600 
L 2925 -600 
Q 2950 0 2950 575 
L 2625 575 
Q 2225 575 1825 550 
L 1825 1025 
Q 2225 1000 2625 1000 
L 2950 1000 
L 2950 3300 
Q 2550 2275 2062 1575 
Q 1575 875 750 175 
Q 550 450 275 575 
Q 1100 1075 1650 1825 
Q 2200 2575 2525 3500 
L 1425 3500 
Q 1025 3500 575 3475 
L 575 3950 
Q 1025 3925 1400 3925 
L 2950 3925 
z
" transform="scale(0.015625)"/>
      </defs>
      <use xlink:href="#SimHei-6837"/>
      <use xlink:href="#SimHei-672c" x="100"/>
     </g>
    </g>
   </g>
   <g id="matplotlib.axis_2">
    <g id="ytick_1">
     <g id="line2d_9">
      <path d="M 62.47575 369.84818 
L 701.901954 369.84818 
" clip-path="url(#p491fbdd15b)" style="fill: none; stroke: #ffffff; stroke-linecap: round"/>
     </g>
     <g id="text_10">
      <!-- 1.6 -->
      <g style="fill: #262626" transform="translate(33.17575 374.38568) scale(0.132 -0.132)">
       <defs>
        <path id="SimHei-2e" d="M 1075 125 
L 500 125 
L 500 675 
L 1075 675 
L 1075 125 
z
" transform="scale(0.015625)"/>
        <path id="SimHei-36" d="M 250 1612 
Q 275 1975 387 2225 
Q 500 2475 725 2850 
L 1750 4450 
L 2325 4450 
L 1275 2800 
Q 1950 2975 2350 2750 
Q 2750 2525 2887 2237 
Q 3025 1950 3037 1612 
Q 3050 1275 2937 950 
Q 2825 625 2537 362 
Q 2250 100 1737 75 
Q 1225 50 862 262 
Q 500 475 362 862 
Q 225 1250 250 1612 
z
M 1025 787 
Q 1250 550 1625 525 
Q 2000 500 2250 775 
Q 2500 1050 2500 1575 
Q 2500 2100 2187 2300 
Q 1875 2500 1487 2450 
Q 1100 2400 925 2075 
Q 750 1750 775 1387 
Q 800 1025 1025 787 
z
" transform="scale(0.015625)"/>
       </defs>
       <use xlink:href="#SimHei-31"/>
       <use xlink:href="#SimHei-2e" x="50"/>
       <use xlink:href="#SimHei-36" x="100"/>
      </g>
     </g>
    </g>
    <g id="ytick_2">
     <g id="line2d_10">
      <path d="M 62.47575 307.514339 
L 701.901954 307.514339 
" clip-path="url(#p491fbdd15b)" style="fill: none; stroke: #ffffff; stroke-linecap: round"/>
     </g>
     <g id="text_11">
      <!-- 1.8 -->
      <g style="fill: #262626" transform="translate(33.17575 312.051839) scale(0.132 -0.132)">
       <defs>
        <path id="SimHei-38" d="M 175 1375 
Q 175 1675 325 1962 
Q 475 2250 825 2425 
Q 525 2600 425 2812 
Q 325 3025 312 3300 
Q 300 3575 387 3775 
Q 475 3975 650 4150 
Q 825 4325 1037 4387 
Q 1250 4450 1500 4450 
Q 1750 4450 1950 4400 
Q 2150 4350 2375 4187 
Q 2600 4025 2700 3725 
Q 2800 3425 2687 3025 
Q 2575 2625 2100 2400 
Q 2525 2275 2700 2012 
Q 2875 1750 2875 1375 
Q 2875 1000 2762 775 
Q 2650 550 2512 400 
Q 2375 250 2137 162 
Q 1900 75 1537 75 
Q 1175 75 912 162 
Q 650 250 475 425 
Q 300 600 237 837 
Q 175 1075 175 1375 
z
M 687 1400 
Q 675 1100 787 875 
Q 900 650 1200 587 
Q 1500 525 1825 600 
Q 2150 675 2275 950 
Q 2400 1225 2362 1500 
Q 2325 1775 2050 1962 
Q 1775 2150 1450 2125 
Q 1125 2100 912 1900 
Q 700 1700 687 1400 
z
M 775 3350 
Q 775 3100 950 2875 
Q 1125 2650 1500 2650 
Q 1875 2650 2062 2875 
Q 2250 3100 2237 3412 
Q 2225 3725 2012 3875 
Q 1800 4025 1437 4000 
Q 1075 3975 925 3787 
Q 775 3600 775 3350 
z
" transform="scale(0.015625)"/>
       </defs>
       <use xlink:href="#SimHei-31"/>
       <use xlink:href="#SimHei-2e" x="50"/>
       <use xlink:href="#SimHei-38" x="100"/>
      </g>
     </g>
    </g>
    <g id="ytick_3">
     <g id="line2d_11">
      <path d="M 62.47575 245.180499 
L 701.901954 245.180499 
" clip-path="url(#p491fbdd15b)" style="fill: none; stroke: #ffffff; stroke-linecap: round"/>
     </g>
     <g id="text_12">
      <!-- 2.0 -->
      <g style="fill: #262626" transform="translate(33.17575 249.717999) scale(0.132 -0.132)">
       <use xlink:href="#SimHei-32"/>
       <use xlink:href="#SimHei-2e" x="50"/>
       <use xlink:href="#SimHei-30" x="100"/>
      </g>
     </g>
    </g>
    <g id="ytick_4">
     <g id="line2d_12">
      <path d="M 62.47575 182.846658 
L 701.901954 182.846658 
" clip-path="url(#p491fbdd15b)" style="fill: none; stroke: #ffffff; stroke-linecap: round"/>
     </g>
     <g id="text_13">
      <!-- 2.2 -->
      <g style="fill: #262626" transform="translate(33.17575 187.384158) scale(0.132 -0.132)">
       <use xlink:href="#SimHei-32"/>
       <use xlink:href="#SimHei-2e" x="50"/>
       <use xlink:href="#SimHei-32" x="100"/>
      </g>
     </g>
    </g>
    <g id="ytick_5">
     <g id="line2d_13">
      <path d="M 62.47575 120.512817 
L 701.901954 120.512817 
" clip-path="url(#p491fbdd15b)" style="fill: none; stroke: #ffffff; stroke-linecap: round"/>
     </g>
     <g id="text_14">
      <!-- 2.4 -->
      <g style="fill: #262626" transform="translate(33.17575 125.050317) scale(0.132 -0.132)">
       <defs>
        <path id="SimHei-34" d="M 2000 1100 
L 75 1100 
L 75 1525 
L 2100 4450 
L 2475 4450 
L 2475 1525 
L 3075 1525 
L 3075 1100 
L 2475 1100 
L 2475 150 
L 2000 150 
L 2000 1100 
z
M 2000 1525 
L 2000 3500 
L 600 1525 
L 2000 1525 
z
" transform="scale(0.015625)"/>
       </defs>
       <use xlink:href="#SimHei-32"/>
       <use xlink:href="#SimHei-2e" x="50"/>
       <use xlink:href="#SimHei-34" x="100"/>
      </g>
     </g>
    </g>
    <g id="ytick_6">
     <g id="line2d_14">
      <path d="M 62.47575 58.178976 
L 701.901954 58.178976 
" clip-path="url(#p491fbdd15b)" style="fill: none; stroke: #ffffff; stroke-linecap: round"/>
     </g>
     <g id="text_15">
      <!-- 2.6 -->
      <g style="fill: #262626" transform="translate(33.17575 62.716476) scale(0.132 -0.132)">
       <use xlink:href="#SimHei-32"/>
       <use xlink:href="#SimHei-2e" x="50"/>
       <use xlink:href="#SimHei-36" x="100"/>
      </g>
     </g>
    </g>
    <g id="text_16">
     <!-- 样本熵 -->
     <g style="fill: #262626" transform="translate(27.37575 218.750625) rotate(-90) scale(0.144 -0.144)">
      <defs>
       <path id="SimHei-71b5" d="M 4750 2650 
Q 5175 2225 5500 1875 
Q 5350 1775 5150 1525 
L 5075 1625 
Q 5050 1350 5050 1025 
Q 5050 725 5075 350 
L 3500 350 
L 3500 1000 
Q 3500 1325 3475 1625 
L 3300 1425 
Q 3150 1625 3050 1700 
L 3050 -550 
L 2575 -550 
Q 2600 -75 2600 375 
L 2600 2350 
Q 2600 2750 2575 3225 
L 3450 3225 
Q 3325 3550 3150 3825 
Q 3325 3950 3525 4050 
Q 3675 3775 3875 3400 
L 3525 3225 
L 4425 3225 
Q 4625 3750 4700 4050 
Q 4975 3950 5275 3850 
Q 5125 3700 4900 3225 
L 6000 3225 
Q 5975 2800 5975 2400 
L 5975 175 
Q 6000 -250 5750 -412 
Q 5500 -575 5100 -600 
Q 5025 -300 4875 -50 
Q 5225 -50 5387 -25 
Q 5550 0 5525 300 
L 5525 2850 
L 3050 2850 
L 3050 1825 
Q 3200 1950 3400 2162 
Q 3600 2375 3750 2600 
Q 3925 2450 4100 2275 
Q 3775 1950 3525 1675 
L 5050 1675 
Q 4700 2100 4425 2350 
Q 4550 2500 4750 2650 
z
M 2250 3975 
Q 2425 3750 2625 3550 
Q 2250 3350 2050 3175 
Q 1850 3000 1650 2850 
Q 1625 2275 1550 1800 
Q 1750 1575 1962 1387 
Q 2175 1200 2525 775 
Q 2325 550 2175 375 
Q 1775 925 1450 1250 
Q 1375 950 1225 525 
Q 1075 100 700 -650 
Q 450 -475 200 -375 
Q 575 50 787 587 
Q 1000 1125 1087 1800 
Q 1175 2475 1175 3325 
Q 1175 4200 1150 5175 
Q 1375 5175 1725 5125 
Q 1650 4700 1650 4375 
L 1650 3400 
Q 2000 3675 2250 3975 
z
M 6125 4150 
Q 5750 4175 5425 4175 
L 3250 4175 
Q 2875 4175 2450 4150 
L 2450 4575 
Q 2875 4550 3250 4550 
L 3925 4550 
Q 3875 4825 3775 5125 
Q 4000 5175 4300 5225 
Q 4350 4925 4425 4550 
L 5425 4550 
Q 5725 4550 6125 4575 
L 6125 4150 
z
M 325 2075 
Q 400 2600 425 2950 
Q 450 3300 475 3775 
Q 650 3775 925 3725 
Q 875 3275 837 2925 
Q 800 2575 750 2025 
Q 550 2050 325 2075 
z
M 4600 700 
L 4600 1350 
L 3950 1350 
L 3950 700 
L 4600 700 
z
" transform="scale(0.015625)"/>
      </defs>
      <use xlink:href="#SimHei-6837"/>
      <use xlink:href="#SimHei-672c" x="100"/>
      <use xlink:href="#SimHei-71b5" x="200"/>
     </g>
    </g>
   </g>
   <g id="PolyCollection_1"/>
   <g id="PolyCollection_2"/>
   <g id="PolyCollection_3"/>
   <g id="line2d_15">
    <path d="M 91.540577 147.410705 
L 94.980202 131.199705 
L 98.419827 136.219463 
L 101.859451 134.766745 
L 105.299076 121.12353 
L 108.7387 135.733448 
L 112.178325 36.768309 
L 115.617949 32.998802 
L 119.057574 36.409063 
L 122.497198 56.51288 
L 125.936823 47.577701 
L 129.376447 59.16983 
L 132.816072 33.324462 
L 136.255697 50.427208 
L 139.695321 32.060966 
L 143.134946 120.58841 
L 146.57457 42.256194 
L 150.014195 135.327378 
L 153.453819 113.469429 
L 156.893444 100.71098 
L 160.333068 72.279738 
L 163.772693 69.085 
L 167.212318 73.667499 
L 170.651942 83.270452 
L 174.091567 51.281107 
L 177.531191 60.245772 
L 180.970816 68.465643 
L 184.41044 183.873447 
L 187.850065 56.241012 
L 191.289689 77.708628 
L 194.729314 61.707657 
L 198.168938 76.636505 
L 205.048188 49.72338 
L 208.487812 60.026184 
L 211.927437 79.840203 
L 215.367061 69.55907 
L 218.806686 89.141659 
L 222.24631 41.551571 
L 225.685935 41.483482 
L 229.125559 182.048303 
L 232.565184 158.734532 
L 236.004809 153.343653 
L 239.444433 42.175381 
L 242.884058 44.180958 
L 246.323682 37.258462 
L 249.763307 66.932826 
L 253.202931 66.002049 
L 256.642556 63.693385 
L 260.08218 51.558031 
L 263.521805 56.186064 
L 266.961429 42.905931 
L 270.401054 64.808195 
L 273.840679 59.466867 
L 277.280303 57.616869 
L 280.719928 68.334049 
L 284.159552 73.772514 
L 287.599177 60.098327 
L 291.038801 72.809338 
L 294.478426 73.250267 
L 297.91805 254.885819 
L 301.357675 277.485617 
L 304.7973 362.240284 
L 308.236924 259.319095 
L 311.676549 252.691309 
L 315.116173 252.21955 
L 318.555798 127.826601 
L 321.995422 139.849051 
L 325.435047 60.955745 
L 328.874671 237.043022 
L 332.314296 240.218004 
L 335.75392 202.625652 
L 339.193545 195.909864 
L 342.63317 192.045889 
L 346.072794 221.946592 
L 349.512419 111.851214 
L 352.952043 89.145146 
L 356.391668 105.543635 
L 359.831292 176.252448 
L 363.270917 134.06813 
L 366.710541 191.272754 
L 370.150166 196.310992 
L 373.58979 180.631781 
L 377.029415 187.748745 
L 380.46904 173.018413 
L 383.908664 185.566505 
L 387.348289 199.190277 
L 390.787913 195.878905 
L 394.227538 183.229394 
L 397.667162 182.976162 
L 401.106787 173.364755 
L 404.546411 160.962736 
L 407.986036 187.431792 
L 411.425661 187.918769 
L 414.865285 169.839265 
L 418.30491 171.293495 
L 421.744534 173.056701 
L 425.184159 154.968429 
L 428.623783 187.338956 
L 432.063408 186.616476 
L 435.503032 43.570136 
L 438.942657 42.928761 
L 442.382281 41.714322 
L 445.821906 33.779154 
L 449.261531 33.057962 
L 452.701155 33.321679 
L 456.14078 42.700481 
L 459.580404 49.119043 
L 463.020029 42.968313 
L 466.459653 46.355155 
L 469.899278 50.364332 
L 473.338902 42.870248 
L 476.778527 41.747115 
L 480.218152 37.289184 
L 483.657776 41.566971 
L 487.097401 88.323621 
L 490.537025 84.061692 
L 493.97665 84.501869 
L 497.416274 61.833763 
L 500.855899 68.527407 
L 504.295523 273.593978 
L 507.735148 232.698795 
L 511.174772 143.482087 
L 514.614397 153.821257 
L 518.054022 162.195254 
L 521.493646 140.830915 
L 524.933271 184.817937 
L 528.372895 175.595033 
L 531.81252 163.676403 
L 535.252144 183.176278 
L 538.691769 180.933342 
L 542.131393 161.654747 
L 545.571018 235.874827 
L 549.010643 119.062248 
L 552.450267 118.983869 
L 555.889892 40.542733 
L 559.329516 101.607842 
L 562.769141 60.435531 
L 566.208765 103.523306 
L 569.64839 103.366618 
L 573.088014 197.284649 
L 576.527639 145.912204 
L 579.967263 136.74215 
L 583.406888 118.111092 
L 586.846513 124.461415 
L 590.286137 185.545313 
L 593.725762 77.716635 
L 597.165386 191.428789 
L 600.605011 62.416469 
L 604.044635 206.531235 
L 607.48426 146.364638 
L 610.923884 92.302238 
L 614.363509 164.848937 
L 617.803134 104.920523 
L 621.242758 108.540054 
L 624.682383 150.443292 
L 628.122007 129.745714 
L 631.561632 131.161669 
L 635.001256 124.954728 
L 638.440881 168.047185 
L 641.880505 94.918232 
L 645.32013 148.71332 
L 648.759754 199.720747 
L 652.199379 91.077171 
L 655.639004 73.256767 
L 659.078628 239.175665 
L 662.518253 160.418091 
L 665.957877 137.63927 
L 669.397502 138.665051 
L 672.837126 144.134198 
L 672.837126 144.134198 
" clip-path="url(#p491fbdd15b)" style="fill: none; stroke: #4c72b0; stroke-width: 1.5; stroke-linecap: round"/>
   </g>
   <g id="line2d_16">
    <path d="M 91.540577 147.731706 
L 94.980202 135.254276 
L 98.419827 141.871039 
L 101.859451 156.453759 
L 105.299076 130.766536 
L 108.7387 141.177133 
L 112.178325 162.041158 
L 115.617949 158.1135 
L 119.057574 165.382078 
L 122.497198 152.038036 
L 125.936823 173.052024 
L 129.376447 149.367909 
L 132.816072 149.74167 
L 136.255697 152.749024 
L 139.695321 150.766408 
L 143.134946 140.843909 
L 146.57457 143.33016 
L 150.014195 141.571668 
L 153.453819 131.731584 
L 156.893444 129.70328 
L 160.333068 158.810709 
L 163.772693 137.816138 
L 167.212318 151.774231 
L 170.651942 134.325173 
L 174.091567 138.73017 
L 177.531191 184.912031 
L 180.970816 130.745826 
L 184.41044 133.774103 
L 187.850065 130.036439 
L 191.289689 146.365071 
L 194.729314 161.338017 
L 198.168938 140.334516 
L 201.608563 148.779063 
L 205.048188 170.408924 
L 208.487812 153.996299 
L 211.927437 135.572728 
L 215.367061 131.20168 
L 222.24631 135.021255 
L 225.685935 129.545302 
L 229.125559 164.252671 
L 232.565184 153.560437 
L 236.004809 158.561016 
L 239.444433 79.551125 
L 242.884058 86.24039 
L 246.323682 86.663108 
L 249.763307 192.366864 
L 253.202931 196.583087 
L 256.642556 185.24832 
L 260.08218 93.043849 
L 263.521805 94.696407 
L 266.961429 79.804038 
L 270.401054 145.141295 
L 273.840679 141.364349 
L 277.280303 137.917832 
L 280.719928 112.741732 
L 284.159552 125.378639 
L 287.599177 111.151075 
L 291.038801 181.725456 
L 294.478426 194.601218 
L 297.91805 186.402307 
L 301.357675 194.086375 
L 304.7973 198.368674 
L 308.236924 187.856649 
L 311.676549 189.573399 
L 315.116173 194.993937 
L 318.555798 149.422852 
L 321.995422 166.384137 
L 325.435047 82.615636 
L 328.874671 163.06675 
L 332.314296 162.075571 
L 335.75392 149.69882 
L 339.193545 149.47969 
L 342.63317 147.314442 
L 346.072794 158.186152 
L 349.512419 135.481023 
L 352.952043 143.69528 
L 356.391668 154.383472 
L 359.831292 178.424032 
L 363.270917 187.142534 
L 366.710541 154.091799 
L 370.150166 163.329395 
L 373.58979 138.575389 
L 377.029415 166.478083 
L 380.46904 164.392161 
L 383.908664 143.928672 
L 387.348289 245.812996 
L 390.787913 253.215256 
L 394.227538 163.626389 
L 397.667162 170.29192 
L 401.106787 155.970498 
L 404.546411 138.613303 
L 407.986036 161.517862 
L 411.425661 172.120141 
L 414.865285 141.638671 
L 418.30491 145.617466 
L 421.744534 146.103821 
L 425.184159 135.040987 
L 428.623783 149.969361 
L 432.063408 154.191714 
L 435.503032 161.346026 
L 438.942657 166.740823 
L 442.382281 168.266086 
L 445.821906 169.037989 
L 449.261531 164.394639 
L 452.701155 160.559721 
L 456.14078 167.046562 
L 459.580404 76.478948 
L 463.020029 163.610435 
L 466.459653 126.986316 
L 469.899278 174.126063 
L 473.338902 176.397286 
L 476.778527 132.20869 
L 480.218152 194.64032 
L 483.657776 189.468484 
L 487.097401 158.209749 
L 490.537025 143.764234 
L 493.97665 159.203686 
L 497.416274 138.173874 
L 504.295523 173.524965 
L 507.735148 159.715363 
L 511.174772 163.230226 
L 514.614397 181.328063 
L 518.054022 303.093008 
L 521.493646 142.161264 
L 524.933271 189.752826 
L 528.372895 169.923504 
L 531.81252 191.847715 
L 535.252144 172.044843 
L 538.691769 191.229016 
L 542.131393 222.944888 
L 545.571018 232.779525 
L 549.010643 84.314646 
L 552.450267 109.680982 
L 555.889892 75.843104 
L 559.329516 56.476446 
L 562.769141 92.49944 
L 566.208765 145.123333 
L 569.64839 139.261068 
L 573.088014 56.74869 
L 576.527639 56.896763 
L 579.967263 57.630077 
L 583.406888 67.53849 
L 586.846513 65.954544 
L 590.286137 55.66243 
L 593.725762 48.005269 
L 597.165386 56.142869 
L 600.605011 90.194399 
L 604.044635 64.958384 
L 607.48426 54.570074 
L 610.923884 48.568731 
L 614.363509 56.061351 
L 617.803134 57.569796 
L 621.242758 53.112068 
L 624.682383 56.32803 
L 628.122007 55.339874 
L 631.561632 63.424688 
L 635.001256 55.375026 
L 638.440881 52.881879 
L 641.880505 49.502507 
L 648.759754 58.926435 
L 652.199379 64.010961 
L 655.639004 54.271619 
L 659.078628 62.575469 
L 662.518253 58.782016 
L 669.397502 59.075468 
L 672.837126 59.873373 
L 672.837126 59.873373 
" clip-path="url(#p491fbdd15b)" style="fill: none; stroke: #dd8452; stroke-width: 1.5; stroke-linecap: round"/>
   </g>
   <g id="line2d_17">
    <path d="M 91.540577 171.325576 
L 94.980202 159.535426 
L 98.419827 168.969912 
L 101.859451 177.273564 
L 105.299076 159.431908 
L 108.7387 176.843382 
L 112.178325 62.031944 
L 115.617949 58.358843 
L 119.057574 64.237236 
L 122.497198 65.980954 
L 125.936823 73.02526 
L 129.376447 69.186217 
L 132.816072 61.019483 
L 136.255697 64.342017 
L 139.695321 61.986265 
L 143.134946 96.076361 
L 146.57457 74.312777 
L 150.014195 95.438561 
L 153.453819 152.105257 
L 156.893444 147.282201 
L 160.333068 72.000787 
L 163.772693 67.716962 
L 167.212318 73.316297 
L 170.651942 137.873949 
L 174.091567 160.713828 
L 177.531191 135.217472 
L 180.970816 134.823695 
L 184.41044 137.326286 
L 187.850065 137.642134 
L 191.289689 117.212068 
L 194.729314 70.051555 
L 198.168938 120.459943 
L 201.608563 75.384671 
L 205.048188 70.174167 
L 208.487812 68.340651 
L 211.927437 112.230401 
L 215.367061 131.786714 
L 218.806686 131.724665 
L 222.24631 113.005488 
L 225.685935 132.387838 
L 229.125559 144.964665 
L 232.565184 146.986001 
L 236.004809 140.528727 
L 239.444433 182.728443 
L 242.884058 184.747065 
L 246.323682 181.94431 
L 249.763307 72.844046 
L 253.202931 78.621002 
L 256.642556 92.147469 
L 260.08218 135.872003 
L 263.521805 140.208975 
L 266.961429 138.361558 
L 270.401054 97.100992 
L 273.840679 100.055209 
L 277.280303 105.600129 
L 280.719928 139.849205 
L 284.159552 139.402974 
L 287.599177 139.448786 
L 291.038801 79.15511 
L 294.478426 74.695688 
L 297.91805 144.486393 
L 301.357675 144.14747 
L 304.7973 179.125217 
L 308.236924 142.193437 
L 311.676549 140.541126 
L 315.116173 181.954761 
L 318.555798 157.594696 
L 321.995422 182.643764 
L 325.435047 192.776274 
L 328.874671 180.232319 
L 332.314296 160.524114 
L 335.75392 217.392315 
L 339.193545 174.472074 
L 342.63317 220.62548 
L 346.072794 160.208167 
L 349.512419 138.538599 
L 352.952043 138.630117 
L 356.391668 233.338183 
L 359.831292 138.271538 
L 363.270917 140.503034 
L 366.710541 163.302134 
L 370.150166 168.07259 
L 373.58979 153.585491 
L 377.029415 165.623155 
L 380.46904 163.873427 
L 383.908664 156.277305 
L 387.348289 168.817754 
L 390.787913 173.899386 
L 394.227538 171.116749 
L 397.667162 170.284507 
L 401.106787 164.804211 
L 404.546411 151.058317 
L 407.986036 169.440647 
L 411.425661 175.131407 
L 414.865285 155.732329 
L 418.30491 157.29791 
L 421.744534 159.408622 
L 425.184159 147.577632 
L 428.623783 160.477306 
L 432.063408 161.176817 
L 435.503032 58.470845 
L 438.942657 60.869079 
L 442.382281 56.597164 
L 445.821906 68.009245 
L 452.701155 60.918896 
L 456.14078 85.320611 
L 459.580404 79.121838 
L 463.020029 62.707668 
L 466.459653 81.775746 
L 469.899278 64.915486 
L 473.338902 66.523142 
L 476.778527 91.715729 
L 480.218152 95.076542 
L 483.657776 90.113699 
L 487.097401 88.520886 
L 490.537025 97.008386 
L 493.97665 77.547302 
L 497.416274 66.580035 
L 500.855899 68.705092 
L 504.295523 138.182002 
L 507.735148 160.716308 
L 511.174772 138.495847 
L 514.614397 163.419536 
L 518.054022 179.809117 
L 521.493646 147.415048 
L 524.933271 167.072374 
L 528.372895 166.085213 
L 531.81252 171.154296 
L 535.252144 163.511725 
L 538.691769 166.61406 
L 542.131393 176.779194 
L 545.571018 163.419946 
L 549.010643 139.355755 
L 552.450267 168.188658 
L 555.889892 97.898529 
L 559.329516 86.079729 
L 562.769141 77.423445 
L 566.208765 113.23009 
L 569.64839 133.890807 
L 573.088014 141.525472 
L 576.527639 147.482229 
L 579.967263 145.651685 
L 583.406888 136.531236 
L 586.846513 148.658114 
L 590.286137 141.219916 
L 593.725762 141.380674 
L 597.165386 142.149823 
L 600.605011 151.560014 
L 604.044635 141.845583 
L 607.48426 146.198569 
L 610.923884 140.343981 
L 614.363509 142.550434 
L 617.803134 138.732382 
L 624.682383 142.693174 
L 628.122007 144.699042 
L 631.561632 137.567882 
L 635.001256 150.439454 
L 638.440881 146.640988 
L 641.880505 148.468366 
L 645.32013 151.692428 
L 648.759754 142.997488 
L 652.199379 155.576917 
L 655.639004 148.20293 
L 659.078628 141.402827 
L 662.518253 146.517724 
L 665.957877 146.138589 
L 669.397502 147.917278 
L 672.837126 141.366804 
L 672.837126 141.366804 
" clip-path="url(#p491fbdd15b)" style="fill: none; stroke: #55a868; stroke-width: 1.5; stroke-linecap: round"/>
   </g>
   <g id="line2d_18">
    <path d="M 573.088014 378.74925 
L 573.088014 15.552 
" clip-path="url(#p491fbdd15b)" style="fill: none; stroke-dasharray: 5.55,2.4; stroke-dashoffset: 0; stroke: #c44e52; stroke-width: 1.5"/>
   </g>
   <g id="patch_3">
    <path d="M 62.47575 378.74925 
L 62.47575 15.552 
" style="fill: none; stroke: #ffffff; stroke-width: 1.25; stroke-linejoin: miter; stroke-linecap: square"/>
   </g>
   <g id="patch_4">
    <path d="M 701.901954 378.74925 
L 701.901954 15.552 
" style="fill: none; stroke: #ffffff; stroke-width: 1.25; stroke-linejoin: miter; stroke-linecap: square"/>
   </g>
   <g id="patch_5">
    <path d="M 62.47575 378.74925 
L 701.901954 378.74925 
" style="fill: none; stroke: #ffffff; stroke-width: 1.25; stroke-linejoin: miter; stroke-linecap: square"/>
   </g>
   <g id="patch_6">
    <path d="M 62.47575 15.552 
L 701.901954 15.552 
" style="fill: none; stroke: #ffffff; stroke-width: 1.25; stroke-linejoin: miter; stroke-linecap: square"/>
   </g>
   <g id="text_17">
    <!-- x=140 -->
    <g style="fill: #c44e52" transform="translate(573.088014 338.68126) scale(0.16 -0.16)">
     <defs>
      <path id="SimHei-78" d="M 2875 125 
L 2275 125 
L 1550 1200 
L 825 125 
L 225 125 
L 1250 1550 
L 300 2925 
L 900 2925 
L 1550 1875 
L 2200 2925 
L 2800 2925 
L 1850 1550 
L 2875 125 
z
" transform="scale(0.015625)"/>
      <path id="SimHei-3d" d="M 2975 2900 
L 125 2900 
L 125 3300 
L 2975 3300 
L 2975 2900 
z
M 2975 1375 
L 125 1375 
L 125 1775 
L 2975 1775 
L 2975 1375 
z
" transform="scale(0.015625)"/>
     </defs>
     <use xlink:href="#SimHei-78"/>
     <use xlink:href="#SimHei-3d" x="50"/>
     <use xlink:href="#SimHei-31" x="100"/>
     <use xlink:href="#SimHei-34" x="150"/>
     <use xlink:href="#SimHei-30" x="200"/>
    </g>
   </g>
   <g id="legend_1">
    <g id="patch_7">
     <path d="M 71.71575 372.14925 
L 166.75575 372.14925 
Q 169.39575 372.14925 169.39575 369.50925 
L 169.39575 314.419875 
Q 169.39575 311.779875 166.75575 311.779875 
L 71.71575 311.779875 
Q 69.07575 311.779875 69.07575 314.419875 
L 69.07575 369.50925 
Q 69.07575 372.14925 71.71575 372.14925 
z
" style="fill: #eaeaf2; opacity: 0.8; stroke: #cccccc; stroke-linejoin: miter"/>
    </g>
    <g id="line2d_19">
     <path d="M 74.35575 322.958625 
L 87.55575 322.958625 
L 100.75575 322.958625 
" style="fill: none; stroke: #4c72b0; stroke-width: 1.5; stroke-linecap: round"/>
    </g>
    <g id="text_18">
     <!-- 静态系数 -->
     <g style="fill: #262626" transform="translate(111.31575 327.578625) scale(0.132 -0.132)">
      <defs>
       <path id="SimHei-9759" d="M 4325 5050 
Q 4200 4900 4137 4762 
Q 4075 4625 4025 4500 
L 5400 4500 
Q 5250 4275 5125 3987 
Q 5000 3700 4850 3375 
L 5775 3375 
Q 5750 3025 5750 2625 
L 5750 2350 
Q 5975 2350 6200 2375 
L 6200 1950 
Q 6025 1975 5750 1975 
L 5750 1625 
Q 5750 1125 5775 675 
L 5325 675 
L 5325 950 
L 4625 950 
L 4625 25 
Q 4600 -300 4412 -425 
Q 4225 -550 3600 -600 
Q 3600 -350 3450 -75 
Q 3775 -100 3987 -75 
Q 4200 -50 4200 175 
L 4200 950 
L 3850 950 
Q 3550 950 3225 925 
L 3225 1325 
Q 3525 1300 3850 1300 
L 4200 1300 
L 4200 1975 
L 3825 1975 
Q 3500 1975 3075 1950 
L 3075 2350 
Q 3425 2325 3850 2325 
L 4200 2325 
L 4200 3025 
L 3850 3025 
Q 3700 3025 3325 3000 
L 3325 3325 
Q 3250 3250 3125 3100 
Q 3000 3300 2825 3450 
Q 3225 3850 3437 4362 
Q 3650 4875 3775 5250 
Q 4025 5125 4325 5050 
z
M 2750 2325 
Q 2725 1975 2725 1600 
L 2725 75 
Q 2725 -300 2525 -400 
Q 2325 -500 1925 -575 
Q 1900 -350 1750 -100 
Q 2325 -100 2275 125 
L 2275 425 
L 975 425 
L 975 -525 
L 525 -525 
Q 550 -250 550 125 
L 550 1600 
Q 550 1975 525 2325 
L 2750 2325 
z
M 1400 4550 
Q 1400 4775 1375 5150 
L 1875 5150 
Q 1850 4775 1850 4550 
L 2175 4550 
Q 2525 4550 3000 4575 
L 3000 4175 
Q 2525 4200 2175 4200 
L 1850 4200 
L 1850 3800 
L 2175 3800 
Q 2325 3800 2725 3825 
L 2725 3425 
Q 2300 3450 2150 3450 
L 1850 3450 
L 1850 3050 
L 2250 3050 
Q 2600 3050 2975 3075 
L 2975 2675 
Q 2575 2700 2250 2700 
L 1000 2700 
Q 600 2700 250 2675 
L 250 3075 
Q 600 3050 1000 3050 
L 1400 3050 
L 1400 3450 
L 975 3450 
Q 825 3450 550 3425 
L 550 3825 
Q 825 3800 975 3800 
L 1400 3800 
L 1400 4200 
L 975 4200 
Q 650 4200 300 4175 
L 300 4575 
Q 650 4550 975 4550 
L 1400 4550 
z
M 3375 3425 
Q 3675 3400 4125 3400 
L 4375 3400 
Q 4625 3925 4700 4150 
L 3850 4150 
Q 3525 3625 3375 3425 
z
M 2275 775 
L 2275 1225 
L 975 1225 
L 975 775 
L 2275 775 
z
M 2275 1575 
L 2275 1975 
L 975 1975 
L 975 1575 
L 2275 1575 
z
M 5325 2325 
L 5325 3025 
L 4625 3025 
L 4625 2325 
L 5325 2325 
z
M 5325 1300 
L 5325 1975 
L 4625 1975 
L 4625 1300 
L 5325 1300 
z
" transform="scale(0.015625)"/>
       <path id="SimHei-6001" d="M 2575 4325 
Q 2700 4800 2725 5250 
Q 3075 5125 3350 5100 
Q 3225 4875 3100 4325 
L 5025 4325 
Q 5375 4325 5825 4375 
L 5825 3850 
Q 5350 3875 5000 3875 
L 3975 3875 
Q 4225 3300 4575 2987 
Q 4925 2675 5250 2525 
Q 5575 2375 6100 2275 
Q 5800 2075 5675 1775 
Q 4900 2100 4525 2412 
Q 4150 2725 3900 3075 
Q 3650 3425 3500 3875 
L 2975 3875 
Q 2675 3200 2187 2687 
Q 1700 2175 725 1625 
Q 650 1850 300 2075 
Q 900 2275 1512 2750 
Q 2125 3225 2425 3875 
L 1300 3875 
Q 900 3875 450 3850 
L 450 4375 
Q 875 4325 1300 4325 
L 2575 4325 
z
M 2525 1350 
Q 2500 875 2500 575 
Q 2500 300 2512 150 
Q 2525 0 2800 0 
L 3825 0 
Q 4025 -25 4175 62 
Q 4325 150 4400 625 
Q 4650 450 4975 375 
Q 4775 -150 4625 -312 
Q 4475 -475 4000 -450 
L 2500 -450 
Q 2050 -400 2012 -162 
Q 1975 75 1975 425 
Q 1975 800 1950 1350 
L 2525 1350 
z
M 1425 1175 
Q 1175 450 825 -325 
Q 625 -175 325 -125 
Q 775 625 875 1375 
Q 1175 1250 1425 1175 
z
M 5175 1525 
Q 5600 950 6050 350 
Q 5800 175 5600 0 
Q 5225 700 4750 1250 
Q 5000 1350 5175 1525 
z
M 2700 3050 
Q 3175 2675 3500 2325 
Q 3275 2175 3100 1975 
Q 2825 2350 2350 2700 
L 2700 3050 
z
M 3375 1750 
Q 3625 1350 3825 925 
Q 3625 800 3375 675 
Q 3200 1175 2950 1525 
Q 3175 1600 3375 1750 
z
" transform="scale(0.015625)"/>
       <path id="SimHei-7cfb" d="M 5300 5200 
Q 5450 4950 5725 4675 
Q 4975 4650 4437 4587 
Q 3900 4525 3125 4450 
Q 3250 4325 3475 4225 
Q 3150 4025 2837 3762 
Q 2525 3500 2225 3275 
L 3475 3275 
Q 4100 3700 4525 4050 
Q 4775 3850 5125 3700 
Q 4775 3550 4450 3375 
Q 4125 3200 3387 2737 
Q 2650 2275 2125 1975 
Q 3600 2050 4875 2100 
Q 4750 2225 4225 2625 
Q 4475 2725 4650 2875 
Q 4950 2650 5337 2312 
Q 5725 1975 6075 1650 
Q 5775 1475 5600 1325 
Q 5400 1575 5225 1725 
Q 4550 1700 3625 1650 
L 3625 150 
Q 3625 -325 3387 -412 
Q 3150 -500 2525 -600 
Q 2475 -300 2300 -25 
Q 2875 -25 3012 12 
Q 3150 50 3150 300 
L 3150 1650 
Q 1625 1625 1075 1525 
Q 1000 1775 900 2050 
Q 1450 2100 1875 2300 
Q 2300 2500 2900 2900 
Q 2325 2900 2037 2875 
Q 1750 2850 1400 2800 
Q 1325 3075 1250 3325 
Q 1675 3325 2100 3662 
Q 2525 4000 2750 4400 
Q 1350 4350 925 4300 
Q 850 4550 750 4750 
Q 2150 4750 3250 4850 
Q 4350 4950 5300 5200 
z
M 4625 1250 
Q 4925 1025 5325 737 
Q 5725 450 6000 175 
Q 5800 0 5600 -225 
Q 5275 125 4925 400 
Q 4575 675 4275 875 
Q 4500 1050 4625 1250 
z
M 2200 875 
Q 1900 725 1537 375 
Q 1175 25 800 -300 
Q 575 -75 375 25 
Q 1075 450 1675 1225 
Q 1900 1050 2200 875 
z
" transform="scale(0.015625)"/>
       <path id="SimHei-6570" d="M 4525 4925 
Q 4475 4800 4400 4587 
Q 4325 4375 4175 3825 
L 5325 3825 
Q 5575 3825 5925 3850 
L 5925 3400 
Q 5650 3425 5500 3425 
Q 5500 3025 5362 2162 
Q 5225 1300 4875 675 
Q 5125 375 5437 137 
Q 5750 -100 6025 -200 
Q 5725 -425 5625 -625 
Q 5325 -450 5075 -225 
Q 4825 0 4575 325 
Q 4300 25 3987 -187 
Q 3675 -400 3200 -650 
Q 3075 -425 2850 -300 
Q 3225 -150 3650 125 
Q 4075 400 4300 675 
Q 4125 1025 3962 1425 
Q 3800 1825 3675 2475 
Q 3600 2275 3425 1950 
Q 3250 2050 3000 2150 
Q 3400 2850 3650 3675 
Q 3900 4500 3975 5100 
Q 4275 4975 4525 4925 
z
M 2100 2250 
Q 2000 2150 1875 1925 
L 3250 1925 
Q 3100 1300 2725 675 
Q 3125 525 3350 400 
Q 3225 225 3125 25 
Q 2900 175 2450 325 
Q 1950 -225 725 -650 
Q 600 -375 400 -275 
Q 1575 0 2000 475 
Q 1300 650 850 775 
Q 1000 1000 1250 1525 
Q 1000 1525 425 1500 
L 425 1950 
Q 900 1925 1400 1925 
Q 1500 2150 1550 2425 
Q 1825 2325 2100 2250 
z
M 1775 3950 
Q 1775 4550 1750 5100 
L 2250 5100 
Q 2225 4575 2225 3950 
Q 3075 3950 3425 3975 
L 3425 3525 
Q 3075 3550 2225 3550 
Q 2225 2825 2250 2425 
L 1750 2425 
Q 1775 2775 1775 3300 
Q 1650 3100 1300 2787 
Q 950 2475 650 2300 
Q 525 2525 275 2625 
Q 500 2700 875 2975 
Q 1250 3250 1450 3550 
Q 950 3550 500 3525 
L 500 3975 
Q 925 3950 1775 3950 
z
M 3975 3175 
Q 4200 1700 4600 1125 
Q 4850 1700 4937 2287 
Q 5025 2875 5050 3425 
L 4075 3425 
L 3975 3175 
z
M 1450 1000 
Q 1750 925 2275 800 
Q 2475 1050 2650 1525 
L 1725 1525 
Q 1600 1275 1450 1000 
z
M 3325 4825 
Q 3200 4625 3125 4450 
Q 3050 4275 2925 4025 
Q 2725 4125 2525 4175 
Q 2725 4500 2900 5000 
Q 3150 4875 3325 4825 
z
M 2575 3375 
Q 2900 3050 3200 2725 
Q 3050 2600 2875 2425 
Q 2525 2850 2300 3100 
Q 2450 3225 2575 3375 
z
M 925 5000 
Q 1275 4650 1500 4300 
L 1125 4075 
Q 950 4425 600 4725 
Q 825 4875 925 5000 
z
" transform="scale(0.015625)"/>
      </defs>
      <use xlink:href="#SimHei-9759"/>
      <use xlink:href="#SimHei-6001" x="100"/>
      <use xlink:href="#SimHei-7cfb" x="200"/>
      <use xlink:href="#SimHei-6570" x="300"/>
     </g>
    </g>
    <g id="line2d_20">
     <path d="M 74.35575 341.778937 
L 87.55575 341.778937 
L 100.75575 341.778937 
" style="fill: none; stroke: #dd8452; stroke-width: 1.5; stroke-linecap: round"/>
    </g>
    <g id="text_19">
     <!-- 一阶差分 -->
     <g style="fill: #262626" transform="translate(111.31575 346.398937) scale(0.132 -0.132)">
      <defs>
       <path id="SimHei-4e00" d="M 4875 2675 
Q 5525 2675 6050 2700 
L 6050 2050 
Q 5525 2075 4900 2075 
L 1600 2075 
Q 950 2075 350 2050 
L 350 2700 
Q 950 2675 1600 2675 
L 4875 2675 
z
" transform="scale(0.015625)"/>
       <path id="SimHei-9636" d="M 2450 4850 
Q 2350 4575 2175 3962 
Q 2000 3350 1825 2800 
Q 2225 2225 2312 1912 
Q 2400 1600 2375 1250 
Q 2350 900 2137 725 
Q 1925 550 1400 475 
Q 1300 925 1200 1075 
Q 1725 1025 1837 1225 
Q 1950 1425 1875 1775 
Q 1800 2125 1350 2725 
Q 1700 3825 1825 4400 
L 975 4400 
L 975 -500 
L 500 -500 
Q 525 175 525 675 
L 525 3650 
Q 525 4225 500 4850 
L 2450 4850 
z
M 4250 4825 
Q 4600 4100 5187 3637 
Q 5775 3175 6200 3025 
Q 5950 2775 5800 2500 
Q 4975 3075 4600 3512 
Q 4225 3950 4025 4400 
Q 3850 4025 3512 3487 
Q 3175 2950 2625 2350 
Q 2425 2575 2175 2700 
Q 2700 3075 3150 3787 
Q 3600 4500 3850 5275 
Q 4050 5150 4375 5075 
Q 4275 4900 4250 4825 
z
M 3750 2700 
Q 3650 2325 3575 1512 
Q 3500 700 3250 225 
Q 3000 -250 2650 -575 
Q 2425 -400 2175 -300 
Q 2550 -25 2762 337 
Q 2975 700 3087 1200 
Q 3200 1700 3200 2800 
Q 3350 2725 3750 2700 
z
M 5025 2775 
Q 4975 2425 4975 2025 
L 4975 350 
Q 4975 100 5000 -525 
L 4475 -525 
Q 4500 150 4500 375 
L 4500 2025 
Q 4500 2375 4475 2775 
L 5025 2775 
z
" transform="scale(0.015625)"/>
       <path id="SimHei-5dee" d="M 4725 4975 
Q 4500 4725 4250 4275 
L 4850 4275 
Q 5450 4275 5825 4300 
L 5825 3850 
Q 5425 3875 4850 3875 
L 3275 3875 
Q 3225 3600 3150 3275 
L 4525 3275 
Q 5075 3275 5525 3300 
L 5525 2850 
Q 5075 2875 4500 2875 
L 3050 2875 
Q 2975 2650 2850 2325 
L 5125 2325 
Q 5675 2325 6025 2350 
L 6025 1900 
Q 5700 1925 5150 1925 
L 2650 1925 
Q 2425 1550 2250 1300 
Q 2650 1275 3100 1275 
L 4525 1275 
Q 4975 1275 5350 1300 
L 5350 850 
Q 4975 875 4575 875 
L 3925 875 
L 3925 -50 
L 5000 -50 
Q 5200 -50 5900 -25 
L 5900 -500 
Q 5275 -475 5025 -475 
L 2100 -475 
Q 1700 -475 1400 -500 
L 1400 -25 
Q 1775 -50 2125 -50 
L 3425 -50 
L 3425 875 
L 3100 875 
Q 2625 875 2175 850 
L 2175 1200 
Q 1925 875 1487 475 
Q 1050 75 625 -250 
Q 425 -25 200 150 
Q 750 475 1262 925 
Q 1775 1375 2100 1925 
L 1325 1925 
Q 750 1925 375 1900 
L 375 2350 
Q 750 2325 1350 2325 
L 2325 2325 
Q 2450 2575 2550 2875 
L 1725 2875 
Q 1375 2875 1000 2850 
L 1000 3300 
Q 1500 3275 1700 3275 
L 2650 3275 
Q 2725 3575 2775 3875 
L 1500 3875 
Q 1100 3875 650 3850 
L 650 4300 
Q 1025 4275 1425 4275 
L 2275 4275 
Q 2075 4675 1850 4950 
Q 2025 5050 2250 5225 
Q 2450 4975 2725 4550 
Q 2525 4450 2325 4275 
L 3750 4275 
Q 4000 4700 4150 5250 
Q 4400 5100 4725 4975 
z
" transform="scale(0.015625)"/>
       <path id="SimHei-5206" d="M 1000 -650 
Q 825 -375 575 -225 
Q 975 -75 1300 137 
Q 1625 350 1875 662 
Q 2125 975 2250 1350 
Q 2375 1725 2425 2275 
Q 1850 2275 1500 2250 
L 1500 2775 
Q 1900 2750 2525 2750 
L 5025 2750 
Q 4975 2375 4950 2100 
L 4750 250 
Q 4700 -200 4350 -350 
Q 4000 -500 3575 -525 
Q 3550 -275 3325 50 
Q 3850 25 4037 87 
Q 4225 150 4275 525 
L 4450 2275 
L 2950 2275 
Q 2875 1625 2737 1187 
Q 2600 750 2350 425 
Q 2100 100 1750 -175 
Q 1400 -450 1000 -650 
z
M 3950 5175 
Q 4125 4650 4662 3975 
Q 5200 3300 6175 2800 
Q 5975 2625 5775 2275 
Q 5325 2600 4987 2887 
Q 4650 3175 4425 3425 
Q 4200 3675 3925 4137 
Q 3650 4600 3475 5000 
Q 3750 5075 3950 5175 
z
M 2700 4825 
Q 2475 4425 2325 4125 
Q 2175 3825 2025 3587 
Q 1875 3350 1575 2950 
Q 1275 2550 850 2125 
Q 625 2350 400 2475 
Q 900 2925 1187 3300 
Q 1475 3675 1737 4112 
Q 2000 4550 2200 5075 
Q 2400 4925 2700 4825 
z
" transform="scale(0.015625)"/>
      </defs>
      <use xlink:href="#SimHei-4e00"/>
      <use xlink:href="#SimHei-9636" x="100"/>
      <use xlink:href="#SimHei-5dee" x="200"/>
      <use xlink:href="#SimHei-5206" x="300"/>
     </g>
    </g>
    <g id="line2d_21">
     <path d="M 74.35575 360.59925 
L 87.55575 360.59925 
L 100.75575 360.59925 
" style="fill: none; stroke: #55a868; stroke-width: 1.5; stroke-linecap: round"/>
    </g>
    <g id="text_20">
     <!-- 二阶差分 -->
     <g style="fill: #262626" transform="translate(111.31575 365.21925) scale(0.132 -0.132)">
      <defs>
       <path id="SimHei-4e8c" d="M 5050 625 
Q 5650 625 6025 675 
L 6025 50 
Q 5625 75 5050 75 
L 1425 75 
Q 775 75 350 50 
L 350 650 
Q 800 625 1400 625 
L 5050 625 
z
M 4350 4150 
Q 4900 4175 5350 4200 
L 5350 3575 
Q 4900 3600 4375 3600 
L 2050 3600 
Q 1450 3600 1000 3575 
L 1000 4175 
Q 1450 4150 2025 4150 
L 4350 4150 
z
" transform="scale(0.015625)"/>
      </defs>
      <use xlink:href="#SimHei-4e8c"/>
      <use xlink:href="#SimHei-9636" x="100"/>
      <use xlink:href="#SimHei-5dee" x="200"/>
      <use xlink:href="#SimHei-5206" x="300"/>
     </g>
    </g>
   </g>
  </g>
 </g>
 <defs>
  <clipPath id="p491fbdd15b">
   <rect x="62.47575" y="15.552" width="639.426204" height="363.19725"/>
  </clipPath>
 </defs>
</svg>
