<?xml version="1.0" encoding="utf-8" standalone="no"?>
<!DOCTYPE svg PUBLIC "-//W3C//DTD SVG 1.1//EN"
  "http://www.w3.org/Graphics/SVG/1.1/DTD/svg11.dtd">
<svg xmlns:xlink="http://www.w3.org/1999/xlink" width="460.8pt" height="345.6pt" viewBox="0 0 460.8 345.6" xmlns="http://www.w3.org/2000/svg" version="1.1">
 <metadata>
  <rdf:RDF xmlns:dc="http://purl.org/dc/elements/1.1/" xmlns:cc="http://creativecommons.org/ns#" xmlns:rdf="http://www.w3.org/1999/02/22-rdf-syntax-ns#">
   <cc:Work>
    <dc:type rdf:resource="http://purl.org/dc/dcmitype/StillImage"/>
    <dc:date>2023-06-04T17:34:59.396605</dc:date>
    <dc:format>image/svg+xml</dc:format>
    <dc:creator>
     <cc:Agent>
      <dc:title>Matplotlib v3.7.1, https://matplotlib.org/</dc:title>
     </cc:Agent>
    </dc:creator>
   </cc:Work>
  </rdf:RDF>
 </metadata>
 <defs>
  <style type="text/css">*{stroke-linejoin: round; stroke-linecap: butt}</style>
 </defs>
 <g id="figure_1">
  <g id="patch_1">
   <path d="M 0 345.6 
L 460.8 345.6 
L 460.8 0 
L 0 0 
z
" style="fill: #ffffff"/>
  </g>
  <g id="axes_1">
   <g id="patch_2">
    <path d="M 62.16075 309.748 
L 445.248 309.748 
L 445.248 15.552 
L 62.16075 15.552 
z
" style="fill: #eaeaf2"/>
   </g>
   <g id="matplotlib.axis_1">
    <g id="xtick_1">
     <g id="line2d_1">
      <path d="M 79.573807 309.748 
L 79.573807 15.552 
" clip-path="url(#pccefa7e744)" style="fill: none; stroke: #ffffff; stroke-linecap: round"/>
     </g>
     <g id="text_1">
      <!-- 0 -->
      <g style="fill: #262626" transform="translate(76.273807 328.323) scale(0.132 -0.132)">
       <defs>
        <path id="SimHei-30" d="M 225 2537 
Q 250 3200 412 3587 
Q 575 3975 875 4225 
Q 1175 4475 1612 4475 
Q 2050 4475 2375 4112 
Q 2700 3750 2800 3200 
Q 2900 2650 2862 1937 
Q 2825 1225 2612 775 
Q 2400 325 1975 150 
Q 1550 -25 1125 187 
Q 700 400 525 750 
Q 350 1100 275 1487 
Q 200 1875 225 2537 
z
M 750 2687 
Q 675 2000 800 1462 
Q 925 925 1212 700 
Q 1500 475 1800 612 
Q 2100 750 2237 1162 
Q 2375 1575 2375 2062 
Q 2375 2550 2337 2950 
Q 2300 3350 2112 3675 
Q 1925 4000 1612 4012 
Q 1300 4025 1062 3700 
Q 825 3375 750 2687 
z
" transform="scale(0.015625)"/>
       </defs>
       <use xlink:href="#SimHei-30"/>
      </g>
     </g>
    </g>
    <g id="xtick_2">
     <g id="line2d_2">
      <path d="M 155.28275 309.748 
L 155.28275 15.552 
" clip-path="url(#pccefa7e744)" style="fill: none; stroke: #ffffff; stroke-linecap: round"/>
     </g>
     <g id="text_2">
      <!-- 5 -->
      <g style="fill: #262626" transform="translate(151.98275 328.323) scale(0.132 -0.132)">
       <defs>
        <path id="SimHei-35" d="M 550 1325 
Q 725 650 1150 575 
Q 1575 500 1837 662 
Q 2100 825 2212 1087 
Q 2325 1350 2312 1675 
Q 2300 2000 2137 2225 
Q 1975 2450 1725 2525 
Q 1475 2600 1162 2525 
Q 850 2450 650 2175 
L 225 2225 
Q 275 2375 700 4375 
L 2675 4375 
L 2675 3925 
L 1075 3925 
Q 950 3250 825 2850 
Q 1200 3025 1525 3012 
Q 1850 3000 2150 2862 
Q 2450 2725 2587 2487 
Q 2725 2250 2787 2012 
Q 2850 1775 2837 1500 
Q 2825 1225 2725 937 
Q 2625 650 2425 462 
Q 2225 275 1937 162 
Q 1650 50 1275 75 
Q 900 100 562 350 
Q 225 600 100 1200 
L 550 1325 
z
" transform="scale(0.015625)"/>
       </defs>
       <use xlink:href="#SimHei-35"/>
      </g>
     </g>
    </g>
    <g id="xtick_3">
     <g id="line2d_3">
      <path d="M 230.991692 309.748 
L 230.991692 15.552 
" clip-path="url(#pccefa7e744)" style="fill: none; stroke: #ffffff; stroke-linecap: round"/>
     </g>
     <g id="text_3">
      <!-- 10 -->
      <g style="fill: #262626" transform="translate(224.391692 328.323) scale(0.132 -0.132)">
       <defs>
        <path id="SimHei-31" d="M 1400 3600 
Q 1075 3275 575 2975 
L 575 3450 
Q 1200 3875 1600 4450 
L 1900 4450 
L 1900 150 
L 1400 150 
L 1400 3600 
z
" transform="scale(0.015625)"/>
       </defs>
       <use xlink:href="#SimHei-31"/>
       <use xlink:href="#SimHei-30" x="50"/>
      </g>
     </g>
    </g>
    <g id="xtick_4">
     <g id="line2d_4">
      <path d="M 306.700635 309.748 
L 306.700635 15.552 
" clip-path="url(#pccefa7e744)" style="fill: none; stroke: #ffffff; stroke-linecap: round"/>
     </g>
     <g id="text_4">
      <!-- 15 -->
      <g style="fill: #262626" transform="translate(300.100635 328.323) scale(0.132 -0.132)">
       <use xlink:href="#SimHei-31"/>
       <use xlink:href="#SimHei-35" x="50"/>
      </g>
     </g>
    </g>
    <g id="xtick_5">
     <g id="line2d_5">
      <path d="M 382.409578 309.748 
L 382.409578 15.552 
" clip-path="url(#pccefa7e744)" style="fill: none; stroke: #ffffff; stroke-linecap: round"/>
     </g>
     <g id="text_5">
      <!-- 20 -->
      <g style="fill: #262626" transform="translate(375.809578 328.323) scale(0.132 -0.132)">
       <defs>
        <path id="SimHei-32" d="M 300 250 
Q 325 625 650 925 
Q 975 1225 1475 1862 
Q 1975 2500 2125 2850 
Q 2275 3200 2237 3450 
Q 2200 3700 2000 3862 
Q 1800 4025 1537 4000 
Q 1275 3975 1037 3800 
Q 800 3625 675 3275 
L 200 3350 
Q 400 3925 712 4187 
Q 1025 4450 1450 4475 
Q 1700 4500 1900 4462 
Q 2100 4425 2312 4287 
Q 2525 4150 2662 3875 
Q 2800 3600 2762 3212 
Q 2725 2825 2375 2287 
Q 2025 1750 1025 600 
L 2825 600 
L 2825 150 
L 300 150 
L 300 250 
z
" transform="scale(0.015625)"/>
       </defs>
       <use xlink:href="#SimHei-32"/>
       <use xlink:href="#SimHei-30" x="50"/>
      </g>
     </g>
    </g>
   </g>
   <g id="matplotlib.axis_2">
    <g id="ytick_1">
     <g id="line2d_6">
      <path d="M 62.16075 267.166252 
L 445.248 267.166252 
" clip-path="url(#pccefa7e744)" style="fill: none; stroke: #ffffff; stroke-linecap: round"/>
     </g>
     <g id="text_6">
      <!-- 6.0 -->
      <g style="fill: #262626" transform="translate(32.86075 271.703752) scale(0.132 -0.132)">
       <defs>
        <path id="SimHei-36" d="M 250 1612 
Q 275 1975 387 2225 
Q 500 2475 725 2850 
L 1750 4450 
L 2325 4450 
L 1275 2800 
Q 1950 2975 2350 2750 
Q 2750 2525 2887 2237 
Q 3025 1950 3037 1612 
Q 3050 1275 2937 950 
Q 2825 625 2537 362 
Q 2250 100 1737 75 
Q 1225 50 862 262 
Q 500 475 362 862 
Q 225 1250 250 1612 
z
M 1025 787 
Q 1250 550 1625 525 
Q 2000 500 2250 775 
Q 2500 1050 2500 1575 
Q 2500 2100 2187 2300 
Q 1875 2500 1487 2450 
Q 1100 2400 925 2075 
Q 750 1750 775 1387 
Q 800 1025 1025 787 
z
" transform="scale(0.015625)"/>
        <path id="SimHei-2e" d="M 1075 125 
L 500 125 
L 500 675 
L 1075 675 
L 1075 125 
z
" transform="scale(0.015625)"/>
       </defs>
       <use xlink:href="#SimHei-36"/>
       <use xlink:href="#SimHei-2e" x="50"/>
       <use xlink:href="#SimHei-30" x="100"/>
      </g>
     </g>
    </g>
    <g id="ytick_2">
     <g id="line2d_7">
      <path d="M 62.16075 218.523432 
L 445.248 218.523432 
" clip-path="url(#pccefa7e744)" style="fill: none; stroke: #ffffff; stroke-linecap: round"/>
     </g>
     <g id="text_7">
      <!-- 6.5 -->
      <g style="fill: #262626" transform="translate(32.86075 223.060932) scale(0.132 -0.132)">
       <use xlink:href="#SimHei-36"/>
       <use xlink:href="#SimHei-2e" x="50"/>
       <use xlink:href="#SimHei-35" x="100"/>
      </g>
     </g>
    </g>
    <g id="ytick_3">
     <g id="line2d_8">
      <path d="M 62.16075 169.880613 
L 445.248 169.880613 
" clip-path="url(#pccefa7e744)" style="fill: none; stroke: #ffffff; stroke-linecap: round"/>
     </g>
     <g id="text_8">
      <!-- 7.0 -->
      <g style="fill: #262626" transform="translate(32.86075 174.418113) scale(0.132 -0.132)">
       <defs>
        <path id="SimHei-37" d="M 850 150 
Q 1300 2050 2425 3925 
L 275 3925 
L 275 4375 
L 2950 4375 
L 2950 3950 
Q 1775 2050 1400 150 
L 850 150 
z
" transform="scale(0.015625)"/>
       </defs>
       <use xlink:href="#SimHei-37"/>
       <use xlink:href="#SimHei-2e" x="50"/>
       <use xlink:href="#SimHei-30" x="100"/>
      </g>
     </g>
    </g>
    <g id="ytick_4">
     <g id="line2d_9">
      <path d="M 62.16075 121.237793 
L 445.248 121.237793 
" clip-path="url(#pccefa7e744)" style="fill: none; stroke: #ffffff; stroke-linecap: round"/>
     </g>
     <g id="text_9">
      <!-- 7.5 -->
      <g style="fill: #262626" transform="translate(32.86075 125.775293) scale(0.132 -0.132)">
       <use xlink:href="#SimHei-37"/>
       <use xlink:href="#SimHei-2e" x="50"/>
       <use xlink:href="#SimHei-35" x="100"/>
      </g>
     </g>
    </g>
    <g id="ytick_5">
     <g id="line2d_10">
      <path d="M 62.16075 72.594973 
L 445.248 72.594973 
" clip-path="url(#pccefa7e744)" style="fill: none; stroke: #ffffff; stroke-linecap: round"/>
     </g>
     <g id="text_10">
      <!-- 8.0 -->
      <g style="fill: #262626" transform="translate(32.86075 77.132473) scale(0.132 -0.132)">
       <defs>
        <path id="SimHei-38" d="M 175 1375 
Q 175 1675 325 1962 
Q 475 2250 825 2425 
Q 525 2600 425 2812 
Q 325 3025 312 3300 
Q 300 3575 387 3775 
Q 475 3975 650 4150 
Q 825 4325 1037 4387 
Q 1250 4450 1500 4450 
Q 1750 4450 1950 4400 
Q 2150 4350 2375 4187 
Q 2600 4025 2700 3725 
Q 2800 3425 2687 3025 
Q 2575 2625 2100 2400 
Q 2525 2275 2700 2012 
Q 2875 1750 2875 1375 
Q 2875 1000 2762 775 
Q 2650 550 2512 400 
Q 2375 250 2137 162 
Q 1900 75 1537 75 
Q 1175 75 912 162 
Q 650 250 475 425 
Q 300 600 237 837 
Q 175 1075 175 1375 
z
M 687 1400 
Q 675 1100 787 875 
Q 900 650 1200 587 
Q 1500 525 1825 600 
Q 2150 675 2275 950 
Q 2400 1225 2362 1500 
Q 2325 1775 2050 1962 
Q 1775 2150 1450 2125 
Q 1125 2100 912 1900 
Q 700 1700 687 1400 
z
M 775 3350 
Q 775 3100 950 2875 
Q 1125 2650 1500 2650 
Q 1875 2650 2062 2875 
Q 2250 3100 2237 3412 
Q 2225 3725 2012 3875 
Q 1800 4025 1437 4000 
Q 1075 3975 925 3787 
Q 775 3600 775 3350 
z
" transform="scale(0.015625)"/>
       </defs>
       <use xlink:href="#SimHei-38"/>
       <use xlink:href="#SimHei-2e" x="50"/>
       <use xlink:href="#SimHei-30" x="100"/>
      </g>
     </g>
    </g>
    <g id="ytick_6">
     <g id="line2d_11">
      <path d="M 62.16075 23.952153 
L 445.248 23.952153 
" clip-path="url(#pccefa7e744)" style="fill: none; stroke: #ffffff; stroke-linecap: round"/>
     </g>
     <g id="text_11">
      <!-- 8.5 -->
      <g style="fill: #262626" transform="translate(32.86075 28.489653) scale(0.132 -0.132)">
       <use xlink:href="#SimHei-38"/>
       <use xlink:href="#SimHei-2e" x="50"/>
       <use xlink:href="#SimHei-35" x="100"/>
      </g>
     </g>
    </g>
    <g id="text_12">
     <!-- 震级 -->
     <g style="fill: #262626" transform="translate(27.06075 177.05) rotate(-90) scale(0.144 -0.144)">
      <defs>
       <path id="SimHei-9707" d="M 1875 -250 
Q 2050 -75 2050 150 
L 2050 1025 
L 1475 1025 
Q 1475 625 1362 237 
Q 1250 -150 875 -675 
Q 675 -500 450 -375 
Q 700 -150 825 112 
Q 950 375 975 700 
Q 1000 1025 1000 1675 
Q 1000 2350 975 2675 
L 4875 2675 
Q 5225 2675 5625 2700 
L 5625 2300 
Q 5225 2325 4875 2325 
L 1475 2325 
L 1475 1375 
L 5025 1375 
Q 5400 1375 5800 1400 
L 5800 1000 
Q 5450 1025 5025 1025 
L 3575 1025 
Q 3650 875 3775 687 
Q 3900 500 4150 350 
Q 4325 500 4400 637 
Q 4475 775 4600 950 
Q 4850 775 5025 600 
Q 4800 475 4712 400 
Q 4625 325 4450 200 
Q 4700 100 4937 50 
Q 5175 0 5925 -25 
Q 5800 -250 5725 -575 
Q 5025 -475 4575 -325 
Q 4125 -175 3850 25 
Q 3575 225 3412 487 
Q 3250 750 3150 1025 
L 2475 1025 
L 2475 0 
Q 2975 200 3250 325 
Q 3250 125 3300 -125 
Q 3150 -175 2812 -325 
Q 2475 -475 2075 -675 
Q 1950 -450 1875 -250 
z
M 4700 5050 
Q 5050 5050 5500 5075 
L 5500 4675 
Q 5050 4700 4700 4700 
L 3425 4700 
L 3425 4400 
L 5900 4400 
Q 5875 4150 5875 3900 
Q 5875 3675 5900 3400 
L 5450 3400 
L 5450 4050 
L 3425 4050 
L 3425 2975 
L 2950 2975 
L 2950 4050 
L 950 4050 
L 950 3400 
L 475 3400 
L 475 4400 
L 2950 4400 
L 2950 4700 
L 1725 4700 
Q 1425 4700 1000 4675 
L 1000 5075 
Q 1375 5050 1725 5050 
L 4700 5050 
z
M 4350 2050 
Q 4725 2050 5150 2075 
L 5150 1675 
Q 4725 1700 4350 1700 
L 2750 1700 
Q 2375 1700 1925 1675 
L 1925 2075 
Q 2375 2050 2750 2050 
L 4350 2050 
z
M 2600 3475 
L 1300 3475 
L 1300 3775 
L 2600 3775 
L 2600 3475 
z
M 2600 2975 
L 1300 2975 
L 1300 3275 
L 2600 3275 
L 2600 2975 
z
M 5050 3475 
L 3825 3475 
L 3825 3775 
L 5050 3775 
L 5050 3475 
z
M 5050 2925 
L 3825 2925 
L 3825 3225 
L 5050 3225 
L 5050 2925 
z
" transform="scale(0.015625)"/>
       <path id="SimHei-7ea7" d="M 5350 4750 
Q 5125 3925 4900 2975 
L 5775 2975 
Q 5650 2325 5462 1750 
Q 5275 1175 4900 575 
Q 5150 325 5462 112 
Q 5775 -100 6150 -250 
Q 5875 -475 5800 -700 
Q 5175 -350 4600 250 
Q 4425 75 4062 -187 
Q 3700 -450 3125 -700 
Q 3000 -500 2775 -350 
Q 3300 -175 3675 75 
Q 4050 325 4325 600 
Q 4025 950 3500 1950 
Q 3425 1400 3125 800 
Q 2850 175 2125 -475 
Q 1975 -350 1700 -200 
Q 2200 150 2525 637 
Q 2850 1125 2987 1687 
Q 3125 2250 3150 2912 
Q 3175 3575 3175 4350 
Q 2900 4350 2525 4325 
L 2525 4775 
Q 2975 4750 3725 4750 
L 5350 4750 
z
M 1900 4850 
Q 1750 4650 1512 4212 
Q 1275 3775 900 3250 
L 1775 3300 
Q 2025 3700 2175 4125 
Q 2300 4025 2625 3825 
Q 2475 3575 2175 3100 
Q 1875 2625 1200 1725 
Q 1950 1825 2400 1900 
Q 2325 1600 2325 1450 
Q 2075 1425 1562 1350 
Q 1050 1275 575 1150 
Q 500 1400 400 1600 
Q 625 1725 925 2037 
Q 1225 2350 1550 2900 
Q 1275 2875 1012 2850 
Q 750 2825 500 2725 
Q 425 2950 300 3250 
Q 625 3450 937 4025 
Q 1250 4600 1400 5125 
Q 1575 5000 1900 4850 
z
M 3575 3125 
Q 3575 2950 3575 2775 
Q 3750 2325 4100 1750 
Q 4450 1150 4600 975 
Q 5025 1625 5225 2575 
L 4325 2575 
Q 4575 3400 4750 4350 
L 3600 4350 
Q 3600 3750 3575 3125 
z
M 2375 1000 
Q 2300 750 2325 550 
Q 1825 425 1425 312 
Q 1025 200 550 50 
Q 475 300 325 525 
Q 675 600 1112 687 
Q 1550 775 2375 1000 
z
" transform="scale(0.015625)"/>
      </defs>
      <use xlink:href="#SimHei-9707"/>
      <use xlink:href="#SimHei-7ea7" x="100"/>
     </g>
    </g>
   </g>
   <g id="PolyCollection_1"/>
   <g id="PolyCollection_2"/>
   <g id="line2d_12">
    <path d="M 79.573807 267.166252 
L 94.715595 267.166252 
L 109.857384 267.166252 
L 124.999172 267.166252 
L 140.140961 267.166252 
L 155.28275 267.166252 
L 170.424538 228.251996 
L 185.566327 228.251996 
L 200.708115 228.251996 
L 215.849904 228.251996 
L 230.991692 228.251996 
L 246.133481 228.251996 
L 261.275269 130.966357 
L 276.417058 130.966357 
L 291.558846 130.966357 
L 306.700635 130.966357 
L 321.842423 130.966357 
L 336.984212 130.966357 
L 352.126 72.594973 
L 367.267789 72.594973 
L 382.409578 72.594973 
L 397.551366 72.594973 
L 412.693155 72.594973 
L 427.834943 72.594973 
" clip-path="url(#pccefa7e744)" style="fill: none; stroke: #4c72b0; stroke-width: 1.5; stroke-linecap: round"/>
   </g>
   <g id="line2d_13">
    <path d="M 79.573807 181.250045 
L 94.715595 168.461853 
L 109.857384 177.273864 
L 124.999172 296.375455 
L 140.140961 180.834387 
L 155.28275 236.334712 
L 170.424538 220.028994 
L 185.566327 221.861631 
L 200.708115 241.926929 
L 215.849904 177.056972 
L 230.991692 181.095337 
L 246.133481 175.367903 
L 261.275269 173.032429 
L 276.417058 173.056921 
L 291.558846 174.453369 
L 306.700635 173.869622 
L 321.842423 174.136275 
L 336.984212 171.964599 
L 352.126 28.924545 
L 367.267789 73.711865 
L 382.409578 127.044364 
L 397.551366 144.208461 
L 412.693155 143.988756 
L 427.834943 177.618181 
" clip-path="url(#pccefa7e744)" style="fill: none; stroke: #dd8452; stroke-width: 1.5; stroke-linecap: round"/>
   </g>
   <g id="patch_3">
    <path d="M 62.16075 309.748 
L 62.16075 15.552 
" style="fill: none; stroke: #ffffff; stroke-width: 1.25; stroke-linejoin: miter; stroke-linecap: square"/>
   </g>
   <g id="patch_4">
    <path d="M 445.248 309.748 
L 445.248 15.552 
" style="fill: none; stroke: #ffffff; stroke-width: 1.25; stroke-linejoin: miter; stroke-linecap: square"/>
   </g>
   <g id="patch_5">
    <path d="M 62.16075 309.748 
L 445.248 309.748 
" style="fill: none; stroke: #ffffff; stroke-width: 1.25; stroke-linejoin: miter; stroke-linecap: square"/>
   </g>
   <g id="patch_6">
    <path d="M 62.16075 15.552 
L 445.248 15.552 
" style="fill: none; stroke: #ffffff; stroke-width: 1.25; stroke-linejoin: miter; stroke-linecap: square"/>
   </g>
   <g id="legend_1">
    <g id="patch_7">
     <path d="M 71.40075 63.546375 
L 153.24075 63.546375 
Q 155.88075 63.546375 155.88075 60.906375 
L 155.88075 24.792 
Q 155.88075 22.152 153.24075 22.152 
L 71.40075 22.152 
Q 68.76075 22.152 68.76075 24.792 
L 68.76075 60.906375 
Q 68.76075 63.546375 71.40075 63.546375 
z
" style="fill: #eaeaf2; opacity: 0.8; stroke: #cccccc; stroke-linejoin: miter"/>
    </g>
    <g id="line2d_14">
     <path d="M 74.04075 33.382313 
L 87.24075 33.382313 
L 100.44075 33.382313 
" style="fill: none; stroke: #4c72b0; stroke-width: 1.5; stroke-linecap: round"/>
    </g>
    <g id="text_13">
     <!-- 真实值 -->
     <g style="fill: #262626" transform="translate(111.00075 38.002313) scale(0.132 -0.132)">
      <defs>
       <path id="SimHei-771f" d="M 3550 5100 
Q 3450 4925 3400 4625 
L 4850 4625 
Q 5175 4625 5725 4650 
L 5725 4250 
Q 5200 4275 4850 4275 
L 3350 4275 
L 3300 3850 
L 5050 3850 
Q 5025 3550 5025 3150 
L 5025 1075 
L 5400 1075 
Q 5800 1075 6075 1100 
L 6075 625 
Q 5575 650 4900 650 
L 1450 650 
Q 775 650 350 625 
L 350 1100 
Q 725 1075 1100 1075 
L 1425 1075 
L 1425 3075 
Q 1425 3450 1400 3850 
L 2825 3850 
L 2850 4275 
L 1400 4275 
Q 1050 4275 625 4250 
L 625 4650 
Q 1175 4625 1375 4625 
L 2925 4625 
Q 2950 4875 2950 5125 
Q 3300 5100 3550 5100 
z
M 4075 525 
Q 4500 425 4925 250 
Q 5350 75 5825 -150 
Q 5550 -425 5450 -575 
Q 5025 -300 4550 -100 
Q 4075 100 3800 175 
Q 3925 350 4075 525 
z
M 4525 3150 
L 4525 3475 
L 1925 3475 
L 1925 3150 
L 4525 3150 
z
M 4525 1075 
L 4525 1400 
L 1925 1400 
L 1925 1075 
L 4525 1075 
z
M 2775 200 
Q 2375 -25 1875 -225 
Q 1375 -425 950 -575 
Q 775 -400 600 -250 
Q 1225 -50 1625 137 
Q 2025 325 2350 525 
Q 2550 350 2775 200 
z
M 4525 1775 
L 4525 2075 
L 1925 2075 
L 1925 1775 
L 4525 1775 
z
M 4525 2475 
L 4525 2775 
L 1925 2775 
L 1925 2475 
L 4525 2475 
z
" transform="scale(0.015625)"/>
       <path id="SimHei-5b9e" d="M 4125 3500 
Q 4050 3200 4000 2675 
Q 3950 2150 3850 1550 
L 5025 1550 
Q 5475 1550 5975 1575 
L 5975 1100 
Q 5450 1125 5000 1125 
L 3725 1125 
Q 3500 625 3050 250 
Q 2600 -125 2000 -337 
Q 1400 -550 925 -675 
Q 825 -375 500 -200 
Q 1225 -125 2050 212 
Q 2875 550 3200 1125 
L 1425 1125 
Q 975 1125 425 1100 
L 425 1575 
Q 1000 1550 1425 1550 
L 3375 1550 
Q 3450 1975 3487 2462 
Q 3525 2950 3500 3650 
Q 3800 3550 4125 3500 
z
M 3250 5250 
Q 3450 4850 3600 4375 
L 5775 4375 
Q 5750 4100 5750 3825 
Q 5750 3575 5775 3275 
L 5200 3275 
L 5200 3975 
L 1225 3975 
L 1225 3225 
L 675 3225 
Q 700 3525 700 3800 
Q 700 4100 675 4375 
L 2975 4375 
Q 2900 4675 2700 5075 
Q 2900 5150 3250 5250 
z
M 4000 825 
Q 4550 525 5050 262 
Q 5550 0 5925 -225 
Q 5750 -425 5550 -650 
Q 5100 -325 4575 -37 
Q 4050 250 3675 400 
Q 3875 650 4000 825 
z
M 1175 2750 
Q 1600 2550 2350 2050 
Q 2250 1900 2050 1650 
Q 1350 2175 925 2350 
Q 1075 2500 1175 2750 
z
M 3150 2825 
Q 2975 2625 2850 2425 
Q 2050 3000 1675 3125 
Q 1800 3300 1950 3525 
L 3150 2825 
z
" transform="scale(0.015625)"/>
       <path id="SimHei-503c" d="M 3675 4450 
L 3675 5100 
Q 3975 5075 4350 5050 
Q 4225 4875 4200 4450 
L 5125 4450 
Q 5550 4450 5875 4475 
L 5875 4025 
Q 5525 4050 5125 4050 
L 4175 4050 
L 4125 3500 
L 5400 3500 
Q 5375 3200 5375 2700 
L 5375 150 
Q 5875 150 6100 175 
L 6100 -275 
Q 5775 -250 5200 -250 
L 2850 -250 
Q 2275 -250 1900 -275 
L 1900 175 
Q 2125 150 2600 150 
L 2600 2700 
Q 2600 3175 2575 3500 
L 3600 3500 
L 3650 4050 
L 3200 4050 
Q 2575 4050 2225 4025 
L 2225 4475 
Q 2550 4450 3200 4450 
L 3675 4450 
z
M 2225 4900 
Q 2025 4675 1650 3750 
L 1650 450 
Q 1650 -75 1675 -550 
L 1150 -550 
Q 1175 -125 1175 375 
L 1175 2950 
Q 875 2450 625 2150 
Q 425 2425 250 2575 
Q 500 2825 937 3537 
Q 1375 4250 1625 5150 
Q 1975 4975 2225 4900 
z
M 4925 2650 
L 4925 3150 
L 3075 3150 
L 3075 2650 
L 4925 2650 
z
M 4925 150 
L 4925 625 
L 3075 625 
L 3075 150 
L 4925 150 
z
M 4925 1000 
L 4925 1450 
L 3075 1450 
L 3075 1000 
L 4925 1000 
z
M 4925 1825 
L 4925 2275 
L 3075 2275 
L 3075 1825 
L 4925 1825 
z
" transform="scale(0.015625)"/>
      </defs>
      <use xlink:href="#SimHei-771f"/>
      <use xlink:href="#SimHei-5b9e" x="100"/>
      <use xlink:href="#SimHei-503c" x="200"/>
     </g>
    </g>
    <g id="line2d_15">
     <path d="M 74.04075 51.996375 
L 87.24075 51.996375 
L 100.44075 51.996375 
" style="fill: none; stroke: #dd8452; stroke-width: 1.5; stroke-linecap: round"/>
    </g>
    <g id="text_14">
     <!-- 预测值 -->
     <g style="fill: #262626" transform="translate(111.00075 56.616375) scale(0.132 -0.132)">
      <defs>
       <path id="SimHei-9884" d="M 5200 4800 
Q 5575 4800 5950 4825 
L 5950 4400 
Q 5575 4425 5200 4425 
L 4500 4425 
Q 4425 4050 4350 3600 
L 5725 3600 
Q 5700 3225 5700 2800 
L 5700 1725 
Q 5700 1300 5725 850 
L 5250 850 
L 5250 3225 
L 3550 3225 
L 3550 800 
L 3075 800 
Q 3100 1375 3100 1725 
L 3100 2775 
Q 3100 3175 3075 3600 
L 3900 3600 
Q 4000 4150 4000 4425 
L 3725 4425 
Q 3300 4425 2850 4400 
L 2850 4825 
Q 3325 4800 3725 4800 
L 5200 4800 
z
M 2600 1775 
Q 2350 1825 2150 1825 
Q 2250 2250 2300 2450 
L 1750 2450 
L 1750 125 
Q 1725 -300 1425 -400 
Q 1125 -500 750 -500 
Q 700 -225 575 25 
Q 1125 -25 1212 37 
Q 1300 100 1300 350 
L 1300 2450 
L 1025 2450 
Q 700 2450 350 2425 
L 350 2850 
Q 700 2825 1000 2825 
L 2850 2825 
Q 2725 2325 2600 1775 
z
M 4725 2875 
Q 4625 2575 4600 2100 
Q 4575 1625 4462 1037 
Q 4350 450 3962 62 
Q 3575 -325 2925 -675 
Q 2700 -500 2475 -350 
Q 3075 -125 3437 200 
Q 3800 525 3950 937 
Q 4100 1350 4137 1850 
Q 4175 2350 4175 2925 
L 4725 2875 
z
M 1625 2900 
Q 1275 3275 800 3650 
Q 925 3775 1075 3950 
Q 1250 3825 1425 3675 
Q 1750 4150 1950 4375 
L 1400 4375 
Q 900 4375 450 4350 
L 450 4775 
Q 900 4750 1375 4750 
L 2575 4750 
L 2575 4375 
Q 2200 4100 1725 3400 
L 1950 3200 
Q 1750 3025 1625 2900 
z
M 4775 725 
Q 5725 0 6075 -325 
Q 5850 -500 5725 -650 
Q 5400 -325 5137 -87 
Q 4875 150 4525 350 
Q 4650 525 4775 725 
z
" transform="scale(0.015625)"/>
       <path id="SimHei-6d4b" d="M 4025 4725 
Q 4000 4475 4000 4000 
L 4000 2225 
Q 4000 1775 4025 1350 
L 3550 1350 
L 3550 4325 
L 2350 4325 
L 2350 1325 
L 1900 1325 
Q 1925 1775 1925 2225 
L 1925 4000 
Q 1925 4200 1900 4725 
L 4025 4725 
z
M 5900 5075 
Q 5875 4800 5875 4375 
L 5875 0 
Q 5875 -325 5650 -425 
Q 5425 -525 4975 -600 
Q 4925 -325 4775 -50 
Q 5125 -50 5262 -25 
Q 5400 0 5400 250 
L 5400 4375 
Q 5400 4775 5375 5075 
L 5900 5075 
z
M 3275 3725 
Q 3225 3400 3200 2325 
Q 3175 1250 2837 550 
Q 2500 -150 2075 -600 
Q 1850 -400 1600 -325 
Q 2200 250 2475 962 
Q 2750 1675 2762 2475 
Q 2775 3275 2725 3800 
Q 3000 3750 3275 3725 
z
M 4950 4275 
Q 4925 4000 4925 3575 
L 4925 1825 
Q 4925 1300 4950 850 
L 4450 850 
Q 4475 1150 4475 1825 
L 4475 3575 
Q 4475 4000 4450 4275 
L 4950 4275 
z
M 1700 1675 
Q 1375 1075 1112 487 
Q 850 -100 725 -400 
Q 500 -200 200 -25 
Q 475 300 762 850 
Q 1050 1400 1250 2000 
Q 1475 1825 1700 1675 
z
M 3400 1050 
Q 3800 650 4300 -125 
Q 4100 -225 3875 -450 
Q 3475 275 3025 750 
Q 3225 875 3400 1050 
z
M 600 3525 
Q 1125 3125 1500 2775 
Q 1300 2575 1150 2375 
Q 825 2775 300 3150 
Q 450 3300 600 3525 
z
M 1350 4000 
Q 950 4375 475 4675 
Q 625 4850 775 5050 
Q 1300 4700 1675 4375 
Q 1500 4250 1350 4000 
z
" transform="scale(0.015625)"/>
      </defs>
      <use xlink:href="#SimHei-9884"/>
      <use xlink:href="#SimHei-6d4b" x="100"/>
      <use xlink:href="#SimHei-503c" x="200"/>
     </g>
    </g>
   </g>
  </g>
 </g>
 <defs>
  <clipPath id="pccefa7e744">
   <rect x="62.16075" y="15.552" width="383.08725" height="294.196"/>
  </clipPath>
 </defs>
</svg>
